<svg width="40.769043" height="44.500000" viewBox="0 0 40.769 44.5" fill="none" xmlns="http://www.w3.org/2000/svg" xmlns:xlink="http://www.w3.org/1999/xlink">
	<desc>
			Created with Pixso.
	</desc>
	<defs>
		<radialGradient gradientTransform="translate(40.7307 20.5) rotate(180) scale(40 25.4555)" cx="0.000000" cy="0.000000" r="1.000000" id="paint_radial_35_17_0" gradientUnits="userSpaceOnUse">
			<stop stop-color="#F7D587"/>
			<stop offset="0.595199" stop-color="#8A5B08"/>
			<stop offset="1.000000" stop-color="#000000" stop-opacity="0.000000"/>
		</radialGradient>
	</defs>
	<path id="Ellipse 4" d="M7.17 36.02Q0 29.89 0 20.45Q0 11.98 5.96 5.99Q11.94 0 20.38 0Q28.82 0 34.79 5.99Q40.76 11.98 40.76 20.45Q40.76 27.76 36.14 33.41Q31.59 38.98 24.6 40.46L24.39 39.48Q31.04 38.08 35.37 32.78Q39.76 27.41 39.76 20.45Q39.76 12.39 34.09 6.69Q28.41 1 20.38 1Q12.35 1 6.67 6.69Q1 12.39 1 20.45Q1 29.43 7.82 35.26L7.17 36.02ZM7.79 35.26L7.82 35.26C8.03 35.44 8.06 35.75 7.88 35.97C7.69 36.18 7.38 36.2 7.17 36.02L7.17 35.99L7.79 35.26ZM24.61 40.43L24.6 40.46C24.32 40.52 24.06 40.35 24.01 40.07C23.95 39.8 24.12 39.54 24.39 39.48L24.42 39.49L24.61 40.43Z" fill="url(#paint_radial_35_17_0)" fill-opacity="1.000000" fill-rule="evenodd"/>
	<path id="Vector" d="M29.95 13.1C31.41 13.13 32.1 14.54 32.6 15.66C32.67 15.78 32.7 16.08 32.7 16.41C32.7 16.99 32.59 17.68 32.33 17.75C32.24 17.81 32.16 17.77 32.16 17.7C32.16 17.68 32.17 17.66 32.18 17.63C32.26 17.37 32.29 17.1 32.29 16.82C32.29 16 31.99 15.16 31.48 14.54C30.26 12.86 28.18 13.66 26.37 14.35C25.84 14.56 25.33 14.75 24.87 14.87C24.51 15 24.14 15.14 23.77 15.29C22.61 15.76 21.41 16.25 20.15 15.99C20.71 15.65 21.55 15.46 22.13 15C23.64 14 24.92 12.73 26.2 11.46C26.31 11.26 26.81 10.8 27.36 10.3C28.12 9.6 28.97 8.82 28.97 8.56C28.97 8.52 28.96 8.5 28.93 8.48C27.72 7.57 26.99 8.63 26.31 9.62C26.08 9.95 25.85 10.28 25.62 10.52C24.33 12.2 22.78 14.34 20.69 14.96C20.01 14.38 18.48 14.47 18.48 14.84C18.48 15.01 18.8 15.24 19.67 15.49C19.19 15.6 18.77 15.42 18.36 15.24C17.88 15.04 17.4 14.83 16.84 15.07C17.6 14.34 18.93 14.3 19.98 14.22C19.94 13.95 19.46 13.96 19.08 13.97C18.82 13.97 18.61 13.97 18.61 13.89C18.61 13.87 18.63 13.84 18.67 13.8C19.1 13.46 19.61 13.54 20.1 13.63C20.25 13.66 20.4 13.68 20.54 13.7C20.2 13.32 19.67 13.11 19.16 13.06C18.58 13.06 18.2 13.5 17.82 13.94C17.35 14.47 16.89 15 16.08 14.71C15.95 14.68 15.8 14.63 15.65 14.58C15.22 14.42 14.75 14.26 14.44 14.66C14.26 14.91 13.98 15.08 13.66 15.14C13.66 15.15 13.66 15.16 13.66 15.17C13.66 15.55 14.56 15.44 14.9 15.34C14.31 16.09 13.25 15.87 12.77 15.17C12.18 14.37 11.28 14.46 10.41 14.54C10.4 14.54 10.39 14.55 10.38 14.55C10.62 14.22 11.11 14.08 11.51 13.99C12.84 14.42 13.25 14.21 13.7 13.98C14.02 13.81 14.36 13.64 15.05 13.66C16.76 14.19 17.58 13.48 18.68 12.33C19.42 11.92 20.02 12.43 20.62 12.95C21.14 13.39 21.67 13.83 22.28 13.67C22.42 13.63 22.48 13.55 22.48 13.44C22.48 12.88 20.87 11.63 20.54 11.4C19.37 10.56 18.8 10.76 18.15 10.98C17.73 11.13 17.28 11.29 16.62 11.19C15.2 10.68 14.25 10.92 13.41 12.16C13.49 12.24 13.54 12.2 13.59 12.17C13.6 12.16 13.61 12.15 13.62 12.15C14.14 11.81 14.76 11.52 15.41 11.55C14.7 12.02 13.56 12.24 13.12 13.16C12.73 13.77 12.43 13.45 12.13 13.12C11.86 12.82 11.58 12.52 11.22 12.88C10.11 13.69 9.32 14.35 9.06 15.69C9.48 15.57 9.8 15.17 10.27 15.1C10.19 15.19 10 15.36 9.79 15.54C9.42 15.86 9 16.22 9 16.33C9 16.41 9.18 16.37 9.7 16.13C10.21 15.88 10.86 16.63 10.86 16.92C10.86 17.07 10.69 17.1 10.26 16.84C9.51 16.55 9.04 16.99 8.74 17.56C8.41 17.28 8.29 16.9 8.29 16.49C8.29 15.68 8.76 14.73 9.11 14.04C9.22 13.81 9.32 13.6 9.38 13.45C9.88 12.7 10.32 11.91 10.88 11.2C11.19 10.7 11.95 10.83 12.18 10.26C13.1 8.23 15.42 7.96 17.41 8.25L17.39 8.26C17.39 8.26 17.39 8.26 17.4 8.26C17.4 8.25 17.41 8.25 17.41 8.25L17.41 8.25C16.93 7.91 16.37 7.83 15.75 7.75C16.97 7.33 19.44 7.69 19.44 8.16C19.44 8.38 18.89 8.62 17.42 8.82C17.12 8.81 16.82 8.78 16.52 8.75C16.02 8.7 15.52 8.66 15.02 8.7C14.32 8.77 13.41 9.01 13.09 9.67C13.25 9.66 13.39 9.6 13.53 9.54C13.73 9.46 13.93 9.38 14.17 9.43C13.73 9.75 13.2 9.93 12.84 10.37C12.71 10.67 12.1 10.99 11.55 11.28C11.07 11.52 10.65 11.74 10.65 11.9C10.65 12.01 10.88 12.09 11.5 12.11C12.49 11.89 12.89 10.56 13.96 10.29C14.63 9.96 15.27 10.19 15.92 10.43C16.56 10.67 17.21 10.91 17.88 10.6C19.16 10 20.69 9.65 21.93 10.51C22.26 10.59 22.68 11.14 23.04 11.6C23.36 12.02 23.63 12.36 23.73 12.24C23.76 12.18 23.77 12.12 23.77 12.06C23.77 11.85 23.61 11.64 23.46 11.43C23.36 11.31 23.27 11.19 23.22 11.07C23.34 11.11 23.47 11.18 23.58 11.24C23.72 11.31 23.81 11.36 23.81 11.32C23.81 11.28 23.75 11.18 23.58 10.97C22.9 10.23 22.54 9.14 21.4 8.99C21.59 9.31 22.11 9.37 22.16 9.76C21.15 8.97 19.98 9.24 18.81 9.5C17.83 9.73 16.85 9.95 15.97 9.54C17.63 9.71 18.63 9.22 19.44 8.82C20.15 8.48 20.71 8.21 21.43 8.49C22.31 8.85 23.2 9.33 23.71 10.14C23.82 10.24 23.86 10.22 23.86 10.14C23.86 9.96 23.67 9.5 23.56 9.39C23.78 9.38 23.95 9.51 24.12 9.63C24.22 9.7 24.32 9.78 24.42 9.82C24.07 8.88 22.72 8.48 21.79 8.04C23.12 8.15 24.17 8.88 25.24 9.56C25.54 9.88 25.72 9.61 25.88 9.33C26.05 9.14 26.21 8.9 26.36 8.65C26.76 8.03 27.19 7.37 27.96 7.37C28.92 7.46 30.12 7.93 30.12 8.92C30.12 9.04 30.1 9.17 30.07 9.3C30.07 9.31 30.07 9.32 30.07 9.33C30.07 9.52 29.97 9.66 29.76 9.55C27.61 10.06 26.23 12.21 24.61 13.56C24.56 13.63 24.31 13.86 24.02 14.12C23.56 14.53 22.99 15.04 22.99 15.17C22.99 15.2 23.04 15.21 23.15 15.17C23.42 15.11 24.12 14.75 24.98 14.31C26.95 13.32 29.72 11.92 29.72 12.83C29.72 12.84 29.72 12.85 29.72 12.85C29.72 12.86 29.72 12.86 29.72 12.87C29.72 13.01 29.79 13.11 29.95 13.1ZM22.16 9.76L22.17 9.77L22.16 9.77C22.16 9.77 22.16 9.76 22.16 9.76ZM22.19 9.78C22.18 9.78 22.17 9.78 22.16 9.78C22.17 9.77 22.18 9.77 22.19 9.78ZM22.19 9.78C22.2 9.78 22.22 9.79 22.23 9.8C22.26 9.81 22.27 9.84 22.28 9.86C22.26 9.85 22.25 9.84 22.23 9.82C22.22 9.8 22.2 9.79 22.19 9.78ZM22.28 9.85L22.28 9.85C22.28 9.85 22.28 9.85 22.28 9.85L22.28 9.85ZM22.28 9.87L22.28 9.85C22.28 9.85 22.29 9.85 22.29 9.85C22.29 9.85 22.3 9.85 22.3 9.85C22.3 9.85 22.29 9.86 22.28 9.87ZM19.71 10.4C21.23 10.78 21.97 12.2 22.97 13.06L22.97 13.06C23.13 12.96 23.2 12.83 23.2 12.68C23.2 12.24 22.61 11.64 22.19 11.2C22.05 11.06 21.92 10.93 21.85 10.84C21.24 10.31 20.54 10.15 19.71 10.4ZM26.53 12.68C27.23 11.88 28.46 11.32 29.43 10.76C29.72 10.57 30 10.92 30 11.18C30 11.29 29.94 11.39 29.81 11.42C28.64 11.56 27.53 12.13 26.53 12.68ZM23.82 11.35C23.82 11.36 23.83 11.37 23.84 11.37L23.84 11.38C23.85 11.37 23.85 11.37 23.85 11.36C23.85 11.35 23.84 11.34 23.83 11.33C23.82 11.34 23.82 11.34 23.82 11.35ZM16.19 12C16.19 12 16.19 12.01 16.2 12.01C16.2 12.01 16.19 12.01 16.19 12L16.21 12.01C16.21 12.01 16.21 12.01 16.2 12.01C16.61 12.3 17.02 12.17 17.43 12.04C17.68 11.95 17.93 11.87 18.18 11.88C18.02 12.01 17.86 12.16 17.7 12.31C17.12 12.86 16.51 13.43 15.69 12.81C15.28 12.52 14.84 12.7 14.42 12.88C14.25 12.95 14.08 13.03 13.92 13.06C14.12 12.6 14.4 12.4 14.87 12.4C15.04 12.37 15.33 12.45 15.63 12.53C16.19 12.68 16.79 12.84 16.83 12.4C16.6 12.3 16.32 12.25 16.2 12.02L16.2 12.02C16.2 12.03 16.19 12.03 16.19 12.02L16.19 12.02C16.19 12.02 16.19 12.01 16.19 12.01C16.19 12.01 16.19 12.01 16.2 12.01C16.19 12.01 16.19 12.01 16.19 12ZM16.19 12.01C16.18 12.01 16.18 12.01 16.18 12C16.18 12 16.18 12 16.18 11.99C16.19 11.99 16.19 11.99 16.19 12C16.19 12 16.19 12.01 16.19 12.01ZM26.53 12.68C26.52 12.69 26.52 12.69 26.52 12.69L26.52 12.69L26.53 12.68ZM18.55 13.96C18.56 13.96 18.56 13.96 18.56 13.97C18.56 13.97 18.55 13.97 18.55 13.97C18.55 13.97 18.55 13.96 18.55 13.96ZM18.55 13.97C18.55 13.97 18.55 13.98 18.55 13.98C18.55 13.99 18.55 13.99 18.56 13.99C18.56 13.99 18.55 13.99 18.55 13.99C18.53 14 18.52 13.99 18.52 13.98C18.52 13.98 18.53 13.96 18.55 13.97ZM18.57 13.99C18.57 13.99 18.56 13.99 18.56 13.99C18.57 13.99 18.57 13.99 18.57 13.99L18.57 13.99ZM30.78 15.68L30.78 15.68L30.78 15.68L30.77 15.67C30.77 15.67 30.77 15.67 30.77 15.67C30 14.76 29.62 15.1 29.14 15.51C28.83 15.78 28.49 16.09 27.96 16.13C28.45 16.54 28.92 16.28 29.35 16.04C29.86 15.76 30.33 15.5 30.69 16.43C30.24 15.91 29.83 16.13 29.39 16.36C29.07 16.54 28.74 16.72 28.37 16.61C27.85 16.38 27.19 16.31 26.81 15.86C26.6 15.59 26.32 15.61 26.03 15.65C25.89 15.76 24.96 15.91 24.96 15.74C24.96 15.72 24.99 15.68 25.04 15.64C25.3 15.57 25.54 15.42 25.72 15.22C26.12 14.94 26.58 15.15 27.06 15.36C27.39 15.51 27.73 15.67 28.05 15.65C28.37 15.67 28.66 15.39 28.94 15.11C29.49 14.58 30.03 14.05 30.78 15.67L30.78 15.67L30.78 15.67C30.78 15.67 30.78 15.67 30.78 15.67L30.78 15.68ZM20.69 14.96L20.7 14.99C20.7 14.98 20.69 14.98 20.69 14.98C20.69 14.97 20.68 14.97 20.68 14.97C20.68 14.96 20.68 14.96 20.69 14.96ZM10.29 15.09L10.35 15.05C10.35 15.06 10.35 15.06 10.35 15.07C10.35 15.1 10.32 15.1 10.3 15.09L10.29 15.09ZM10.27 15.09L10.27 15.09L10.28 15.09C10.28 15.09 10.28 15.09 10.28 15.09C10.28 15.09 10.29 15.09 10.29 15.09L10.28 15.1L10.29 15.1L10.27 15.1L10.27 15.09ZM18.82 16.2C18.82 16.21 18.82 16.21 18.82 16.21L18.83 16.21C18.83 16.21 18.83 16.22 18.83 16.22C18.83 16.22 18.84 16.23 18.84 16.23L18.83 16.23C20.06 17.95 22.44 16.93 23.76 18.21C23 17.78 22.15 17.97 21.33 18.15C20.31 18.38 19.31 18.6 18.55 17.62C18.52 17.58 18.5 17.54 18.47 17.5C18 16.74 17.51 15.94 16.46 15.98C15.57 15.93 15.1 16.6 14.64 17.25C14.44 17.53 14.25 17.82 14.02 18.04C12.9 19.34 11.27 18.45 11.27 16.94C11.27 16.9 11.27 16.86 11.27 16.82C12.32 19.08 13.48 17.88 14.6 16.73C14.85 16.47 15.1 16.22 15.34 16.01C16.71 14.98 18.01 16.32 18.84 17.34C19.37 17.9 20.34 18.21 21.06 17.85C20.08 17.59 19.13 17.35 18.82 16.23C18.82 16.23 18.81 16.23 18.81 16.22L18.82 16.22C18.82 16.21 18.82 16.21 18.82 16.2ZM30.79 15.67C30.79 15.67 30.79 15.67 30.78 15.67C30.78 15.64 30.8 15.64 30.8 15.66C30.8 15.66 30.8 15.66 30.8 15.66C30.79 15.66 30.79 15.67 30.79 15.67ZM30.79 15.67C30.8 15.67 30.8 15.67 30.8 15.68C30.8 15.68 30.8 15.68 30.8 15.68C30.79 15.69 30.79 15.68 30.79 15.68C30.79 15.68 30.79 15.67 30.79 15.67ZM12.25 16.46C12.25 16.47 12.26 16.47 12.27 16.47C12.42 16.55 12.57 16.62 12.8 16.56C12.53 16.33 12.21 16.18 12.12 15.88C12.11 15.87 12.11 15.87 12.1 15.87L12.11 15.86C12.11 15.86 12.11 15.85 12.11 15.85C12.11 15.85 12.12 15.85 12.12 15.85C12.12 15.85 12.12 15.85 12.12 15.85C12.12 15.85 12.12 15.85 12.13 15.85L12.12 15.86C12.75 16.42 13.54 16.37 14.31 16.27C14.08 17.1 12.5 17.39 12.25 16.48L12.23 16.49C12.23 16.48 12.23 16.48 12.23 16.48C12.24 16.47 12.24 16.47 12.25 16.47L12.25 16.46ZM18.84 16.2L18.83 16.21C18.82 16.21 18.82 16.21 18.82 16.21C18.82 16.2 18.83 16.2 18.84 16.2ZM22.96 16.21C23.91 16.4 24.67 16.46 25.58 16.34C24.95 17.33 23.72 17.09 22.96 16.21ZM30.69 16.43C30.7 16.42 30.71 16.43 30.72 16.43C30.72 16.43 30.71 16.43 30.69 16.43ZM30.82 16.54C30.82 16.54 30.81 16.54 30.81 16.54C30.81 16.54 30.81 16.54 30.8 16.53L30.81 16.53C30.79 16.52 30.78 16.5 30.77 16.49C30.76 16.47 30.74 16.45 30.72 16.43C30.76 16.45 30.78 16.5 30.81 16.53L30.81 16.53C30.81 16.53 30.81 16.53 30.81 16.53L30.81 16.54C30.81 16.54 30.82 16.54 30.82 16.54ZM30.83 16.53L30.81 16.53C30.81 16.53 30.81 16.53 30.81 16.52C30.81 16.52 30.81 16.52 30.81 16.52C30.81 16.51 30.81 16.51 30.83 16.53ZM28.66 18.18C28.73 18.36 28.91 18.36 29.02 18.46C28.32 18.4 28.04 18.12 27.76 17.84C27.35 17.44 26.94 17.05 25.28 17.31C26.81 16.5 27.53 16.95 28.13 17.33C28.45 17.53 28.74 17.71 29.09 17.66C29.13 17.65 29.17 17.63 29.22 17.61C29.53 17.49 29.84 17.36 30.06 17.76C29.69 17.63 29.41 17.79 29.13 17.95C28.98 18.04 28.83 18.13 28.66 18.18ZM30.88 17.77C30.42 17.2 29.96 17.2 29.48 17.2C29.22 17.2 28.94 17.2 28.66 17.09C29.4 16.89 30.77 16.62 30.88 17.77ZM22.03 19.87C21.51 20.93 20.32 21.1 19.26 20.74C19.39 21.32 20.18 21.66 20.76 21.54C19.45 22.4 18.83 21.39 18.2 20.37C17.47 19.19 16.73 17.98 14.89 19.53C14.32 20.16 13.55 20.94 12.7 20.32C12.4 20.23 11.78 19.42 11.78 19.13C11.78 19.01 11.89 18.98 12.2 19.14C13.33 19.69 14.03 18.91 14.71 18.15C15.34 17.44 15.97 16.75 16.92 17.18C16.69 17.4 16.21 17.41 16.02 17.77C16 17.79 15.99 17.81 15.99 17.83C15.99 17.9 16.14 17.93 16.32 17.96C16.55 18 16.83 18.05 16.92 18.22C17.01 18.3 17.09 18.39 17.18 18.48C18.56 19.83 20.11 21.36 22.02 19.88L22.02 19.85C22.02 19.85 22.02 19.85 22.02 19.85C22.02 19.86 22.03 19.86 22.03 19.87L22.03 19.87C22.03 19.87 22.03 19.87 22.03 19.87ZM31.56 20.46C31.57 20.69 31.57 20.93 31.59 21.13C31.62 21.27 31.63 21.41 31.63 21.54C31.63 22.07 31.45 22.56 31.26 23.05C31.08 23.53 30.89 24.03 30.89 24.56C30.89 24.57 30.89 24.59 30.89 24.6C30.9 26.09 31.05 27.58 31.05 29.07C31.06 29.12 31.06 29.17 31.06 29.22C31.06 30.13 30.08 30.1 29.34 29.99C28.91 29.99 28.85 30.21 28.85 30.48C28.85 30.53 28.85 30.59 28.86 30.65C28.86 30.71 28.86 30.77 28.86 30.83C28.86 31.04 28.82 31.24 28.6 31.33C28.44 31.42 28.2 31.38 28.13 31.55C28.13 31.58 28.13 31.62 28.13 31.65C28.13 31.72 28.13 31.79 28.14 31.87C28.14 31.95 28.15 32.03 28.15 32.1C28.15 32.36 28.09 32.6 27.75 32.67C27.36 32.85 27.33 33.22 27.33 33.64C27.33 33.69 27.33 33.73 27.33 33.78C27.33 33.83 27.33 33.88 27.33 33.93C27.33 34.57 27.25 35.22 26.09 35.41C24.81 35.65 23.5 35.58 22.21 35.51L22.16 35.51C21.65 35.49 21.65 35.5 21.61 35.78C21.6 35.83 21.59 35.88 21.58 35.95C21.54 36.45 21.42 36.98 21.3 37.52C21.15 38.17 21 38.84 21 39.47C21 39.78 21.03 40.08 21.12 40.37C21.24 40.7 22.54 41.58 23.82 42.45C25.09 43.32 26.34 44.18 26.34 44.42C26.34 44.52 26.14 44.52 25.69 44.4C22.46 43.87 19.7 42.07 16.64 41.08C13.22 39.87 10.26 41.22 8.63 41.97C7.76 42.36 7.26 42.59 7.26 42.18C7.26 41.83 7.62 41.02 8.42 39.45C9.82 37.45 11.4 35.47 11.6 32.97C11.6 32.63 11.64 32.27 11.67 31.9C11.7 31.49 11.74 31.07 11.74 30.67C11.74 30.09 11.67 29.54 11.41 29.08C10.23 28.52 9.66 27.49 9.45 26.33C8.41 25.18 8.33 23.45 8.26 21.88C8.23 21.21 8.2 20.57 8.1 20.01C8.1 19.99 8.1 19.96 8.1 19.93C8.1 19.89 8.1 19.84 8.1 19.78C8.09 19.73 8.09 19.67 8.09 19.62C8.09 19.45 8.11 19.28 8.2 19.17C8.43 19.43 8.34 19.97 8.47 20.33C8.48 20.36 8.49 20.41 8.5 20.46C8.6 21.11 8.88 22.75 9.43 21.53C9.52 21.25 9.56 20.97 9.56 20.69C9.56 20.01 9.33 19.34 9.1 18.69C9.06 18.56 9.01 18.43 8.97 18.3C8.96 18.26 8.96 18.23 8.96 18.2C8.96 17.26 10.49 18.35 10.75 18.8C11.19 19.28 11.52 19.95 11.52 20.2C11.52 20.42 11.26 20.32 10.61 19.47C10.49 19.17 10.27 18.91 9.99 18.74C9.91 18.73 9.88 18.77 9.88 18.85C9.88 18.99 9.99 19.25 10.11 19.51C10.22 19.79 10.34 20.07 10.34 20.22C10.34 20.24 10.34 20.25 10.34 20.27C10.43 21.2 11.24 21.47 11.8 21.93C11.38 22.06 11.06 21.89 10.57 21.58C10.57 21.6 10.56 21.63 10.56 21.65C10.56 21.95 10.95 22.25 11.23 22.35C12.01 22.52 12.09 23.33 12.55 23.77C12.55 23.74 12.55 23.72 12.55 23.69C12.55 23.27 12.37 22.9 12.17 22.52C12.52 22.6 12.57 22.64 13.04 23.28C13.09 23.15 13.12 23.03 13.12 22.92C13.12 22.35 12.56 21.92 12.04 21.51C11.8 21.32 11.56 21.14 11.4 20.96C11.34 20.87 11.32 20.82 11.32 20.79C11.32 20.72 11.48 20.8 11.66 20.9C11.83 20.99 12.02 21.09 12.12 21.09C12.23 21.11 12.27 21.06 12.27 20.98C12.27 20.91 12.23 20.8 12.2 20.7C12.17 20.62 12.15 20.55 12.15 20.5L12.15 20.49C12.27 20.58 12.38 20.65 12.48 20.72C12.98 21.08 13.24 21.27 14.18 21.02C14.29 20.96 14.37 21 14.37 21.08C14.37 21.11 14.36 21.16 14.33 21.2C14.22 21.52 13.79 21.52 13.48 21.52C13.3 21.52 13.16 21.52 13.16 21.58C13.16 21.64 13.25 21.74 13.49 21.93C14.05 22.24 14.51 21.97 14.98 21.68C15.42 21.41 15.88 21.13 16.46 21.34C16.92 21.47 17.1 21.4 17.1 21.26C17.1 20.91 16.1 20.08 15.42 20.16C16.57 19.41 17.26 20.22 18.03 21.11C18.87 22.09 19.79 23.17 21.49 22.38C20.78 23.19 19.47 22.89 18.58 22.5C18.92 23.02 19.73 23.23 20.34 23.4C21.61 23.71 22.46 22.86 23.3 22.03C23.63 21.7 23.96 21.37 24.31 21.12C24.18 20.46 22.77 21.05 22.51 21.54C22.51 21.54 22.51 21.54 22.51 21.54C22.51 21.54 22.51 21.54 22.5 21.54L22.5 21.54C22.5 21.54 22.51 21.54 22.51 21.54C22.62 20.47 23.79 20.19 24.72 20.59C24.76 20.6 24.8 20.61 24.85 20.62C25.17 20.71 25.52 20.8 25.79 20.55C25.84 20.5 25.88 20.44 25.88 20.4C25.88 20.35 25.84 20.3 25.73 20.27C24.07 19.06 23.27 19.32 21.98 20.83C22.07 20.16 22.98 19.53 23.55 19.09C24.27 18.59 25.1 18.93 25.64 19.52C25.76 19.81 26.23 19.87 26.59 19.91C26.82 19.93 27.01 19.96 27.01 20.03C27.01 20.06 26.98 20.09 26.94 20.13C26.02 20.96 24.88 21.52 23.86 22.22C23.54 22.42 23.23 22.68 22.93 22.94C22.16 23.61 21.39 24.28 20.26 23.9C19.55 23.52 18.88 23.8 18.46 23.98C18.18 24.09 18.02 24.16 18.02 23.97C17.89 23.41 17.69 22.86 17.31 22.42C15.4 21.07 14.61 22.03 14.61 23.49C14.61 25.18 15.68 27.55 17.34 27.73C17.21 27.93 16.69 27.82 16.26 27.72C15.9 27.64 15.6 27.57 15.6 27.7C15.6 27.71 15.6 27.73 15.61 27.74C15.96 29.64 16.87 31.5 18.59 32.56C18.91 32.72 19.23 32.89 19.56 33.06C21.59 34.13 23.82 35.29 26.12 34.89C26.64 34.72 26.98 34.22 26.98 33.72C26.98 33.43 26.86 33.15 26.61 32.93C26.79 32.34 27.7 32.69 27.75 32.05C27.76 32.02 27.76 31.99 27.76 31.96C27.76 31.3 27.11 31.41 26.47 31.51C26.06 31.58 25.65 31.64 25.41 31.52C25.77 31.45 26.1 31.32 26.43 31.19C26.98 30.97 27.52 30.76 28.16 30.86C28.37 30.9 28.46 30.76 28.46 30.59C28.46 30.44 28.39 30.27 28.28 30.2C27.87 30.01 27.62 29.69 27.62 29.3C27.62 29.14 27.67 28.96 27.76 28.78C27.88 29.31 28.34 29.69 28.89 29.39C29.1 29.3 29.39 29.4 29.66 29.49C30.1 29.65 30.52 29.79 30.63 29.16Q30.63 29.11 30.63 29.05L30.63 29.05C30.63 28.28 30.59 27.52 30.56 26.75C30.53 26.23 30.51 25.7 30.5 25.18C30.48 24.97 30.47 24.76 30.47 24.56C30.47 23.97 30.56 23.4 30.94 22.9C31.29 22.27 31.31 21.56 31.33 20.84C31.34 20.36 31.35 19.87 31.46 19.41C31.47 19.42 31.47 19.43 31.47 19.43C31.55 19.69 31.56 20.08 31.56 20.46ZM28.49 18.9C27.95 19.13 27.53 18.9 27.11 18.67C26.76 18.48 26.4 18.29 25.95 18.35C25.8 18.37 25.74 18.42 25.74 18.5C25.74 18.8 26.81 19.46 27.03 19.53C26.32 19.6 25.92 19.12 25.51 18.63L25.51 18.62C25.47 18.57 25.37 18.52 25.28 18.47C25.18 18.42 25.08 18.38 25.08 18.33C25.08 18.3 25.12 18.27 25.21 18.24C26.35 17.78 26.79 18.05 27.34 18.39C27.64 18.58 27.98 18.79 28.49 18.9ZM18.43 18.5C19.79 19.64 20.45 19.28 21.21 18.86C21.71 18.59 22.25 18.29 23.06 18.37C23.03 18.47 22.96 18.47 22.91 18.48C22.28 18.58 21.91 19.1 21.47 19.49C20.43 20.65 18.78 19.79 18.43 18.5ZM10.04 24.04C10.27 24.95 10.69 25.8 11.7 26.04C11.84 26.08 11.89 26.05 11.89 26C11.89 25.92 11.8 25.79 11.71 25.73C10.76 24.81 11.61 23.24 10.27 22.55C10.14 22.49 10.1 22.51 10.1 22.56C10.1 22.61 10.13 22.68 10.16 22.76C10.19 22.85 10.22 22.94 10.22 23.01C10.22 23.03 10.22 23.04 10.22 23.05C10.08 23.04 10.04 22.91 9.95 22.84C9.5 22.55 9.34 22.51 9.34 22.61C9.34 22.71 9.48 22.93 9.63 23.18C9.82 23.48 10.03 23.84 10.04 24.04ZM15.28 23.42C15.41 22.05 17.01 22.44 17.01 23.46C17.01 23.59 16.98 23.73 16.92 23.88C16.91 23.91 16.9 23.94 16.9 23.98C16.9 24.03 16.92 24.07 16.99 24.06C17.26 23.87 17.34 23.96 17.34 24.13C17.34 24.3 17.26 24.53 17.19 24.64C16.9 25.07 16.14 24.88 16.14 24.38C16.14 24.33 16.15 24.28 16.16 24.23C16.17 24.09 16.24 23.95 16.31 23.81C16.39 23.66 16.46 23.51 16.46 23.37C16.46 23.28 16.44 23.21 16.38 23.13C16.02 22.78 15.68 23.08 15.4 23.32C15.36 23.35 15.32 23.39 15.28 23.42ZM25.97 23.44C27.17 23.11 28.43 22.77 29.66 22.89C29.88 22.94 29.98 23.09 29.98 23.29C29.98 24.2 28.08 26.24 27.53 25.65C27.49 25.61 27.43 25.56 27.36 25.5C27.09 25.26 26.69 24.91 26.69 24.66C26.69 24.53 26.79 24.43 27.07 24.38C27.1 24.36 27.13 24.35 27.16 24.34C27.65 24.16 28.15 23.98 28.69 24.04C28.75 24.01 28.78 23.99 28.78 23.96C28.78 23.85 28.36 23.75 28.24 23.82C27.91 23.81 27.54 23.93 27.16 24.04C26.37 24.29 25.58 24.53 25.24 23.63C25.48 23.57 25.73 23.51 25.97 23.44ZM27.1 24.69C27.1 25.09 28.45 25.73 28.49 24.81L28.49 24.8C28.49 24.26 27.69 24.44 27.29 24.53C27.24 24.54 27.2 24.54 27.17 24.55C27.12 24.59 27.1 24.64 27.1 24.69ZM11.09 27.25C11.18 27.32 11.27 27.38 11.35 27.44C11.46 27.49 11.51 27.48 11.51 27.42C11.51 27.2 10.79 26.32 10.6 26.25C9.95 25.82 9.79 25.19 9.39 24.56C9.37 24.67 9.37 24.77 9.37 24.87C9.37 25.95 10.25 26.62 11.09 27.25ZM15.89 25.28C16.31 25.63 16.76 25.54 17.25 25.4C17.27 25.51 17.28 25.61 17.28 25.69C17.28 26.71 15.48 25.7 15.48 24.9L15.48 24.89C15.48 24.89 15.73 25.16 15.89 25.28ZM20.07 39.82C20.33 38.35 20.53 36.88 20.88 35.43C19.52 34.5 17.55 33.97 16.22 32.77C15.54 32.22 14.53 32.05 14.05 32.92C13.71 33.66 13.52 34.54 13.52 35.44C13.52 37.02 14.12 38.6 15.53 39.34C15.71 39.32 15.78 39.22 15.78 39.08C15.78 38.9 15.67 38.65 15.57 38.42C15.5 38.25 15.43 38.1 15.42 37.99C15.17 37.38 15.07 37 15.07 36.8C15.07 36.25 15.91 37.13 16.7 37.96C17.13 38.41 17.54 38.84 17.8 39.03C17.83 39.04 17.85 39.06 17.88 39.08C18.43 39.5 19.5 40.31 20.07 39.82ZM11.54 20.3L11.52 20.33L11.52 20.33L11.53 20.33L11.53 20.33C11.53 20.33 11.53 20.33 11.52 20.33L11.52 20.33L11.53 20.33L11.53 20.33C11.53 20.33 11.54 20.32 11.54 20.31C11.54 20.31 11.54 20.31 11.54 20.3Z" fill="#FFFFFF" fill-opacity="1.000000" fill-rule="evenodd"/>
</svg>
